solid OpenSCAD_Model
  facet normal 0 1 -0
    outer loop
      vertex 5 5 0
      vertex -5 5 8
      vertex 5 5 8
    endloop
  endfacet
  facet normal 0 1 0
    outer loop
      vertex -5 5 8
      vertex 5 5 0
      vertex -5 5 0
    endloop
  endfacet
  facet normal -1 0 0
    outer loop
      vertex -6 -4 0
      vertex -6 4 8
      vertex -6 4 0
    endloop
  endfacet
  facet normal -1 -0 0
    outer loop
      vertex -6 4 8
      vertex -6 -4 0
      vertex -6 -4 8
    endloop
  endfacet
  facet normal 0.923876 0.382691 0
    outer loop
      vertex 5.95106 4.30902 8
      vertex 5.89101 4.45399 0
      vertex 5.89101 4.45399 8
    endloop
  endfacet
  facet normal 0.923876 0.382691 0
    outer loop
      vertex 5.89101 4.45399 0
      vertex 5.95106 4.30902 8
      vertex 5.95106 4.30902 0
    endloop
  endfacet
  facet normal -0.649421 0.760429 0
    outer loop
      vertex -5.58778 4.80902 0
      vertex -5.70711 4.70711 8
      vertex -5.58778 4.80902 8
    endloop
  endfacet
  facet normal -0.649421 0.760429 0
    outer loop
      vertex -5.70711 4.70711 8
      vertex -5.58778 4.80902 0
      vertex -5.70711 4.70711 0
    endloop
  endfacet
  facet normal -0.382691 0.923876 0
    outer loop
      vertex -5.30902 4.95106 0
      vertex -5.45399 4.89101 8
      vertex -5.30902 4.95106 8
    endloop
  endfacet
  facet normal -0.382691 0.923876 0
    outer loop
      vertex -5.45399 4.89101 8
      vertex -5.30902 4.95106 0
      vertex -5.45399 4.89101 0
    endloop
  endfacet
  facet normal 0.996918 -0.0784508 0
    outer loop
      vertex 5.98769 -4.15643 8
      vertex 6 -4 0
      vertex 6 -4 8
    endloop
  endfacet
  facet normal 0.996918 -0.0784508 0
    outer loop
      vertex 6 -4 0
      vertex 5.98769 -4.15643 8
      vertex 5.98769 -4.15643 0
    endloop
  endfacet
  facet normal -0.0784508 -0.996918 0
    outer loop
      vertex -5.15643 -4.98769 0
      vertex -5 -5 8
      vertex -5.15643 -4.98769 8
    endloop
  endfacet
  facet normal -0.0784508 -0.996918 -0
    outer loop
      vertex -5 -5 8
      vertex -5.15643 -4.98769 0
      vertex -5 -5 0
    endloop
  endfacet
  facet normal 0 0 1
    outer loop
      vertex 4.5 3.5 8
      vertex 6 4 8
      vertex 5.98769 4.15643 8
    endloop
  endfacet
  facet normal 0 0 1
    outer loop
      vertex 6 4 8
      vertex 4.5 3.5 8
      vertex 6 -4 8
    endloop
  endfacet
  facet normal 0 0 1
    outer loop
      vertex 4.5 3.5 8
      vertex 5.98769 4.15643 8
      vertex 5.95106 4.30902 8
    endloop
  endfacet
  facet normal -0 0 1
    outer loop
      vertex 4.5 -3.5 8
      vertex 6 -4 8
      vertex 4.5 3.5 8
    endloop
  endfacet
  facet normal 0 0 1
    outer loop
      vertex 4.5 3.5 8
      vertex 5.95106 4.30902 8
      vertex 5.89101 4.45399 8
    endloop
  endfacet
  facet normal 0 0 1
    outer loop
      vertex 6 -4 8
      vertex 4.5 -3.5 8
      vertex 5.98769 -4.15643 8
    endloop
  endfacet
  facet normal 0 0 1
    outer loop
      vertex 4.5 3.5 8
      vertex 5.89101 4.45399 8
      vertex 5.80902 4.58778 8
    endloop
  endfacet
  facet normal 0 0 1
    outer loop
      vertex 5.98769 -4.15643 8
      vertex 4.5 -3.5 8
      vertex 5.95106 -4.30902 8
    endloop
  endfacet
  facet normal 0 0 1
    outer loop
      vertex 4.5 3.5 8
      vertex 5.80902 4.58778 8
      vertex 5.70711 4.70711 8
    endloop
  endfacet
  facet normal 0 0 1
    outer loop
      vertex 5.95106 -4.30902 8
      vertex 4.5 -3.5 8
      vertex 5.89101 -4.45399 8
    endloop
  endfacet
  facet normal 0 0 1
    outer loop
      vertex 4.5 3.5 8
      vertex 5.70711 4.70711 8
      vertex 5.58778 4.80902 8
    endloop
  endfacet
  facet normal 0 0 1
    outer loop
      vertex 5.89101 -4.45399 8
      vertex 4.5 -3.5 8
      vertex 5.80902 -4.58778 8
    endloop
  endfacet
  facet normal 0 0 1
    outer loop
      vertex 4.5 3.5 8
      vertex 5.58778 4.80902 8
      vertex 5.45399 4.89101 8
    endloop
  endfacet
  facet normal 0 0 1
    outer loop
      vertex 5.80902 -4.58778 8
      vertex 4.5 -3.5 8
      vertex 5.70711 -4.70711 8
    endloop
  endfacet
  facet normal 0 0 1
    outer loop
      vertex 4.5 3.5 8
      vertex 5.45399 4.89101 8
      vertex 5.30902 4.95106 8
    endloop
  endfacet
  facet normal 0 0 1
    outer loop
      vertex 5.70711 -4.70711 8
      vertex 4.5 -3.5 8
      vertex 5.58778 -4.80902 8
    endloop
  endfacet
  facet normal 0 0 1
    outer loop
      vertex 4.5 3.5 8
      vertex 5.30902 4.95106 8
      vertex 5.15643 4.98769 8
    endloop
  endfacet
  facet normal 0 0 1
    outer loop
      vertex 5.58778 -4.80902 8
      vertex 4.5 -3.5 8
      vertex 5.45399 -4.89101 8
    endloop
  endfacet
  facet normal 0 0 1
    outer loop
      vertex 4.5 3.5 8
      vertex 5.15643 4.98769 8
      vertex 5 5 8
    endloop
  endfacet
  facet normal 0 0 1
    outer loop
      vertex 5.45399 -4.89101 8
      vertex 4.5 -3.5 8
      vertex 5.30902 -4.95106 8
    endloop
  endfacet
  facet normal 0 0 1
    outer loop
      vertex 5.30902 -4.95106 8
      vertex 4.5 -3.5 8
      vertex 5.15643 -4.98769 8
    endloop
  endfacet
  facet normal 0 0 1
    outer loop
      vertex 5 5 8
      vertex -4.5 3.5 8
      vertex 4.5 3.5 8
    endloop
  endfacet
  facet normal -0 0 1
    outer loop
      vertex -5.15643 4.98769 8
      vertex -4.5 3.5 8
      vertex -5 5 8
    endloop
  endfacet
  facet normal -0 0 1
    outer loop
      vertex -5 5 8
      vertex -4.5 3.5 8
      vertex 5 5 8
    endloop
  endfacet
  facet normal 0 0 1
    outer loop
      vertex 5.15643 -4.98769 8
      vertex 4.5 -3.5 8
      vertex 5 -5 8
    endloop
  endfacet
  facet normal -0 0 1
    outer loop
      vertex -4.5 -3.5 8
      vertex 5 -5 8
      vertex 4.5 -3.5 8
    endloop
  endfacet
  facet normal 0 0 1
    outer loop
      vertex -4.5 -3.5 8
      vertex -5 -5 8
      vertex 5 -5 8
    endloop
  endfacet
  facet normal 0 0 1
    outer loop
      vertex -4.5 3.5 8
      vertex -6 4 8
      vertex -4.5 -3.5 8
    endloop
  endfacet
  facet normal -0 0 1
    outer loop
      vertex -5.30902 4.95106 8
      vertex -4.5 3.5 8
      vertex -5.15643 4.98769 8
    endloop
  endfacet
  facet normal 0 0 1
    outer loop
      vertex -6 -4 8
      vertex -4.5 -3.5 8
      vertex -6 4 8
    endloop
  endfacet
  facet normal -0 0 1
    outer loop
      vertex -5.45399 4.89101 8
      vertex -4.5 3.5 8
      vertex -5.30902 4.95106 8
    endloop
  endfacet
  facet normal 0 -0 1
    outer loop
      vertex -5.98769 -4.15643 8
      vertex -4.5 -3.5 8
      vertex -6 -4 8
    endloop
  endfacet
  facet normal -0 0 1
    outer loop
      vertex -5.58778 4.80902 8
      vertex -4.5 3.5 8
      vertex -5.45399 4.89101 8
    endloop
  endfacet
  facet normal 0 0 1
    outer loop
      vertex -4.5 -3.5 8
      vertex -5.15643 -4.98769 8
      vertex -5 -5 8
    endloop
  endfacet
  facet normal -0 0 1
    outer loop
      vertex -5.70711 4.70711 8
      vertex -4.5 3.5 8
      vertex -5.58778 4.80902 8
    endloop
  endfacet
  facet normal 0 0 1
    outer loop
      vertex -4.5 -3.5 8
      vertex -5.30902 -4.95106 8
      vertex -5.15643 -4.98769 8
    endloop
  endfacet
  facet normal -0 0 1
    outer loop
      vertex -5.80902 4.58778 8
      vertex -4.5 3.5 8
      vertex -5.70711 4.70711 8
    endloop
  endfacet
  facet normal 0 0 1
    outer loop
      vertex -4.5 -3.5 8
      vertex -5.45399 -4.89101 8
      vertex -5.30902 -4.95106 8
    endloop
  endfacet
  facet normal -0 0 1
    outer loop
      vertex -5.89101 4.45399 8
      vertex -4.5 3.5 8
      vertex -5.80902 4.58778 8
    endloop
  endfacet
  facet normal 0 0 1
    outer loop
      vertex -4.5 -3.5 8
      vertex -5.58778 -4.80902 8
      vertex -5.45399 -4.89101 8
    endloop
  endfacet
  facet normal -0 0 1
    outer loop
      vertex -5.95106 4.30902 8
      vertex -4.5 3.5 8
      vertex -5.89101 4.45399 8
    endloop
  endfacet
  facet normal 0 0 1
    outer loop
      vertex -4.5 -3.5 8
      vertex -5.70711 -4.70711 8
      vertex -5.58778 -4.80902 8
    endloop
  endfacet
  facet normal -0 0 1
    outer loop
      vertex -5.98769 4.15643 8
      vertex -4.5 3.5 8
      vertex -5.95106 4.30902 8
    endloop
  endfacet
  facet normal 0 0 1
    outer loop
      vertex -4.5 -3.5 8
      vertex -5.80902 -4.58778 8
      vertex -5.70711 -4.70711 8
    endloop
  endfacet
  facet normal 0 0 1
    outer loop
      vertex -4.5 3.5 8
      vertex -5.98769 4.15643 8
      vertex -6 4 8
    endloop
  endfacet
  facet normal 0 0 1
    outer loop
      vertex -4.5 -3.5 8
      vertex -5.89101 -4.45399 8
      vertex -5.80902 -4.58778 8
    endloop
  endfacet
  facet normal 0 0 1
    outer loop
      vertex -4.5 -3.5 8
      vertex -5.95106 -4.30902 8
      vertex -5.89101 -4.45399 8
    endloop
  endfacet
  facet normal 0 0 1
    outer loop
      vertex -4.5 -3.5 8
      vertex -5.98769 -4.15643 8
      vertex -5.95106 -4.30902 8
    endloop
  endfacet
  facet normal -0.996918 0.0784508 0
    outer loop
      vertex -6 4 0
      vertex -5.98769 4.15643 8
      vertex -5.98769 4.15643 0
    endloop
  endfacet
  facet normal -0.996918 0.0784508 0
    outer loop
      vertex -5.98769 4.15643 8
      vertex -6 4 0
      vertex -6 4 8
    endloop
  endfacet
  facet normal 0.972375 0.233424 0
    outer loop
      vertex 5.98769 4.15643 8
      vertex 5.95106 4.30902 0
      vertex 5.95106 4.30902 8
    endloop
  endfacet
  facet normal 0.972375 0.233424 0
    outer loop
      vertex 5.95106 4.30902 0
      vertex 5.98769 4.15643 8
      vertex 5.98769 4.15643 0
    endloop
  endfacet
  facet normal 0.760429 0.649421 0
    outer loop
      vertex 5.80902 4.58778 8
      vertex 5.70711 4.70711 0
      vertex 5.70711 4.70711 8
    endloop
  endfacet
  facet normal 0.760429 0.649421 0
    outer loop
      vertex 5.70711 4.70711 0
      vertex 5.80902 4.58778 8
      vertex 5.80902 4.58778 0
    endloop
  endfacet
  facet normal 0.382691 0.923876 -0
    outer loop
      vertex 5.45399 4.89101 0
      vertex 5.30902 4.95106 8
      vertex 5.45399 4.89101 8
    endloop
  endfacet
  facet normal 0.382691 0.923876 0
    outer loop
      vertex 5.30902 4.95106 8
      vertex 5.45399 4.89101 0
      vertex 5.30902 4.95106 0
    endloop
  endfacet
  facet normal -0.972375 0.233424 0
    outer loop
      vertex -5.98769 4.15643 0
      vertex -5.95106 4.30902 8
      vertex -5.95106 4.30902 0
    endloop
  endfacet
  facet normal -0.972375 0.233424 0
    outer loop
      vertex -5.95106 4.30902 8
      vertex -5.98769 4.15643 0
      vertex -5.98769 4.15643 8
    endloop
  endfacet
  facet normal -0.760429 0.649421 0
    outer loop
      vertex -5.80902 4.58778 0
      vertex -5.70711 4.70711 8
      vertex -5.70711 4.70711 0
    endloop
  endfacet
  facet normal -0.760429 0.649421 0
    outer loop
      vertex -5.70711 4.70711 8
      vertex -5.80902 4.58778 0
      vertex -5.80902 4.58778 8
    endloop
  endfacet
  facet normal -0.852631 0.522514 0
    outer loop
      vertex -5.89101 4.45399 0
      vertex -5.80902 4.58778 8
      vertex -5.80902 4.58778 0
    endloop
  endfacet
  facet normal -0.852631 0.522514 0
    outer loop
      vertex -5.80902 4.58778 8
      vertex -5.89101 4.45399 0
      vertex -5.89101 4.45399 8
    endloop
  endfacet
  facet normal -0.522514 0.852631 0
    outer loop
      vertex -5.45399 4.89101 0
      vertex -5.58778 4.80902 8
      vertex -5.45399 4.89101 8
    endloop
  endfacet
  facet normal -0.522514 0.852631 0
    outer loop
      vertex -5.58778 4.80902 8
      vertex -5.45399 4.89101 0
      vertex -5.58778 4.80902 0
    endloop
  endfacet
  facet normal -0.233424 0.972375 0
    outer loop
      vertex -5.15643 4.98769 0
      vertex -5.30902 4.95106 8
      vertex -5.15643 4.98769 8
    endloop
  endfacet
  facet normal -0.233424 0.972375 0
    outer loop
      vertex -5.30902 4.95106 8
      vertex -5.15643 4.98769 0
      vertex -5.30902 4.95106 0
    endloop
  endfacet
  facet normal 0.0784508 -0.996918 0
    outer loop
      vertex 5 -5 0
      vertex 5.15643 -4.98769 8
      vertex 5 -5 8
    endloop
  endfacet
  facet normal 0.0784508 -0.996918 0
    outer loop
      vertex 5.15643 -4.98769 8
      vertex 5 -5 0
      vertex 5.15643 -4.98769 0
    endloop
  endfacet
  facet normal 0.996918 0.0784508 0
    outer loop
      vertex 6 4 8
      vertex 5.98769 4.15643 0
      vertex 5.98769 4.15643 8
    endloop
  endfacet
  facet normal 0.996918 0.0784508 0
    outer loop
      vertex 5.98769 4.15643 0
      vertex 6 4 8
      vertex 6 4 0
    endloop
  endfacet
  facet normal 1 -0 0
    outer loop
      vertex 6 -4 8
      vertex 6 4 0
      vertex 6 4 8
    endloop
  endfacet
  facet normal 1 0 0
    outer loop
      vertex 6 4 0
      vertex 6 -4 8
      vertex 6 -4 0
    endloop
  endfacet
  facet normal 0 -1 0
    outer loop
      vertex -5 -5 0
      vertex 5 -5 8
      vertex -5 -5 8
    endloop
  endfacet
  facet normal 0 -1 -0
    outer loop
      vertex 5 -5 8
      vertex -5 -5 0
      vertex 5 -5 0
    endloop
  endfacet
  facet normal -0.233424 -0.972375 0
    outer loop
      vertex -5.30902 -4.95106 0
      vertex -5.15643 -4.98769 8
      vertex -5.30902 -4.95106 8
    endloop
  endfacet
  facet normal -0.233424 -0.972375 -0
    outer loop
      vertex -5.15643 -4.98769 8
      vertex -5.30902 -4.95106 0
      vertex -5.15643 -4.98769 0
    endloop
  endfacet
  facet normal -0.649421 -0.760429 0
    outer loop
      vertex -5.70711 -4.70711 0
      vertex -5.58778 -4.80902 8
      vertex -5.70711 -4.70711 8
    endloop
  endfacet
  facet normal -0.649421 -0.760429 -0
    outer loop
      vertex -5.58778 -4.80902 8
      vertex -5.70711 -4.70711 0
      vertex -5.58778 -4.80902 0
    endloop
  endfacet
  facet normal 0.0784508 0.996918 -0
    outer loop
      vertex 5.15643 4.98769 0
      vertex 5 5 8
      vertex 5.15643 4.98769 8
    endloop
  endfacet
  facet normal 0.0784508 0.996918 0
    outer loop
      vertex 5 5 8
      vertex 5.15643 4.98769 0
      vertex 5 5 0
    endloop
  endfacet
  facet normal 0.522514 0.852631 -0
    outer loop
      vertex 5.58778 4.80902 0
      vertex 5.45399 4.89101 8
      vertex 5.58778 4.80902 8
    endloop
  endfacet
  facet normal 0.522514 0.852631 0
    outer loop
      vertex 5.45399 4.89101 8
      vertex 5.58778 4.80902 0
      vertex 5.45399 4.89101 0
    endloop
  endfacet
  facet normal 0.649421 0.760429 -0
    outer loop
      vertex 5.70711 4.70711 0
      vertex 5.58778 4.80902 8
      vertex 5.70711 4.70711 8
    endloop
  endfacet
  facet normal 0.649421 0.760429 0
    outer loop
      vertex 5.58778 4.80902 8
      vertex 5.70711 4.70711 0
      vertex 5.58778 4.80902 0
    endloop
  endfacet
  facet normal 0.852631 0.522514 0
    outer loop
      vertex 5.89101 4.45399 8
      vertex 5.80902 4.58778 0
      vertex 5.80902 4.58778 8
    endloop
  endfacet
  facet normal 0.852631 0.522514 0
    outer loop
      vertex 5.80902 4.58778 0
      vertex 5.89101 4.45399 8
      vertex 5.89101 4.45399 0
    endloop
  endfacet
  facet normal -0.923876 0.382691 0
    outer loop
      vertex -5.95106 4.30902 0
      vertex -5.89101 4.45399 8
      vertex -5.89101 4.45399 0
    endloop
  endfacet
  facet normal -0.923876 0.382691 0
    outer loop
      vertex -5.89101 4.45399 8
      vertex -5.95106 4.30902 0
      vertex -5.95106 4.30902 8
    endloop
  endfacet
  facet normal -0.0784508 0.996918 0
    outer loop
      vertex -5 5 0
      vertex -5.15643 4.98769 8
      vertex -5 5 8
    endloop
  endfacet
  facet normal -0.0784508 0.996918 0
    outer loop
      vertex -5.15643 4.98769 8
      vertex -5 5 0
      vertex -5.15643 4.98769 0
    endloop
  endfacet
  facet normal 0.760429 -0.649421 0
    outer loop
      vertex 5.70711 -4.70711 8
      vertex 5.80902 -4.58778 0
      vertex 5.80902 -4.58778 8
    endloop
  endfacet
  facet normal 0.760429 -0.649421 0
    outer loop
      vertex 5.80902 -4.58778 0
      vertex 5.70711 -4.70711 8
      vertex 5.70711 -4.70711 0
    endloop
  endfacet
  facet normal 0.923876 -0.382691 0
    outer loop
      vertex 5.89101 -4.45399 8
      vertex 5.95106 -4.30902 0
      vertex 5.95106 -4.30902 8
    endloop
  endfacet
  facet normal 0.923876 -0.382691 0
    outer loop
      vertex 5.95106 -4.30902 0
      vertex 5.89101 -4.45399 8
      vertex 5.89101 -4.45399 0
    endloop
  endfacet
  facet normal 0.522514 -0.852631 0
    outer loop
      vertex 5.45399 -4.89101 0
      vertex 5.58778 -4.80902 8
      vertex 5.45399 -4.89101 8
    endloop
  endfacet
  facet normal 0.522514 -0.852631 0
    outer loop
      vertex 5.58778 -4.80902 8
      vertex 5.45399 -4.89101 0
      vertex 5.58778 -4.80902 0
    endloop
  endfacet
  facet normal 0 0 -1
    outer loop
      vertex 5 -5 0
      vertex 6 -4 0
      vertex 5.98769 -4.15643 0
    endloop
  endfacet
  facet normal 0 0 -1
    outer loop
      vertex 6 -4 0
      vertex 4.6 0 0
      vertex 6 4 0
    endloop
  endfacet
  facet normal 0 0 -1
    outer loop
      vertex 5 -5 0
      vertex 5.98769 -4.15643 0
      vertex 5.95106 -4.30902 0
    endloop
  endfacet
  facet normal 0 0 -1
    outer loop
      vertex 4.52169 0.494427 0
      vertex 6 4 0
      vertex 4.6 0 0
    endloop
  endfacet
  facet normal 0 0 -1
    outer loop
      vertex 5 -5 0
      vertex 5.95106 -4.30902 0
      vertex 5.89101 -4.45399 0
    endloop
  endfacet
  facet normal 0 0 -1
    outer loop
      vertex 4.29443 0.940456 0
      vertex 6 4 0
      vertex 4.52169 0.494427 0
    endloop
  endfacet
  facet normal 0 0 -1
    outer loop
      vertex 5 -5 0
      vertex 5.89101 -4.45399 0
      vertex 5.80902 -4.58778 0
    endloop
  endfacet
  facet normal 0 0 -1
    outer loop
      vertex 3.94046 1.29443 0
      vertex 6 4 0
      vertex 4.29443 0.940456 0
    endloop
  endfacet
  facet normal 0 0 -1
    outer loop
      vertex 5 -5 0
      vertex 5.80902 -4.58778 0
      vertex 5.70711 -4.70711 0
    endloop
  endfacet
  facet normal 0 0 -1
    outer loop
      vertex 3.49443 1.52169 0
      vertex 6 4 0
      vertex 3.94046 1.29443 0
    endloop
  endfacet
  facet normal 0 0 -1
    outer loop
      vertex 5 -5 0
      vertex 5.70711 -4.70711 0
      vertex 5.58778 -4.80902 0
    endloop
  endfacet
  facet normal 0 -0 -1
    outer loop
      vertex 5 5 0
      vertex 6 4 0
      vertex 3.49443 1.52169 0
    endloop
  endfacet
  facet normal 0 0 -1
    outer loop
      vertex 5 -5 0
      vertex 5.58778 -4.80902 0
      vertex 5.45399 -4.89101 0
    endloop
  endfacet
  facet normal 0 0 -1
    outer loop
      vertex 6 4 0
      vertex 5 5 0
      vertex 5.98769 4.15643 0
    endloop
  endfacet
  facet normal 0 0 -1
    outer loop
      vertex 5 -5 0
      vertex 5.45399 -4.89101 0
      vertex 5.30902 -4.95106 0
    endloop
  endfacet
  facet normal 0 0 -1
    outer loop
      vertex 5.98769 4.15643 0
      vertex 5 5 0
      vertex 5.95106 4.30902 0
    endloop
  endfacet
  facet normal 0 0 -1
    outer loop
      vertex 5 -5 0
      vertex 5.30902 -4.95106 0
      vertex 5.15643 -4.98769 0
    endloop
  endfacet
  facet normal 0 0 -1
    outer loop
      vertex 5.95106 4.30902 0
      vertex 5 5 0
      vertex 5.89101 4.45399 0
    endloop
  endfacet
  facet normal -0 0 -1
    outer loop
      vertex 6 -4 0
      vertex 5 -5 0
      vertex 3.49443 -1.52169 0
    endloop
  endfacet
  facet normal 0 0 -1
    outer loop
      vertex 5.80902 4.58778 0
      vertex 5 5 0
      vertex 5.70711 4.70711 0
    endloop
  endfacet
  facet normal 0 0 -1
    outer loop
      vertex 5.70711 4.70711 0
      vertex 5 5 0
      vertex 5.58778 4.80902 0
    endloop
  endfacet
  facet normal 0 0 -1
    outer loop
      vertex 6 -4 0
      vertex 4.52169 -0.494427 0
      vertex 4.6 0 0
    endloop
  endfacet
  facet normal 0 0 -1
    outer loop
      vertex 6 -4 0
      vertex 4.29443 -0.940456 0
      vertex 4.52169 -0.494427 0
    endloop
  endfacet
  facet normal 0 0 -1
    outer loop
      vertex 6 -4 0
      vertex 3.94046 -1.29443 0
      vertex 4.29443 -0.940456 0
    endloop
  endfacet
  facet normal 0 0 -1
    outer loop
      vertex 6 -4 0
      vertex 3.49443 -1.52169 0
      vertex 3.94046 -1.29443 0
    endloop
  endfacet
  facet normal 0 0 -1
    outer loop
      vertex 5 -5 0
      vertex 3 -1.6 0
      vertex 3.49443 -1.52169 0
    endloop
  endfacet
  facet normal 0 0 -1
    outer loop
      vertex 5 -5 0
      vertex -3 -1.6 0
      vertex 3 -1.6 0
    endloop
  endfacet
  facet normal 0 0 -1
    outer loop
      vertex -5 -5 0
      vertex -3 -1.6 0
      vertex 5 -5 0
    endloop
  endfacet
  facet normal -0 0 -1
    outer loop
      vertex -4.29443 -0.940456 0
      vertex -6 -4 0
      vertex -4.52169 -0.494427 0
    endloop
  endfacet
  facet normal -0 0 -1
    outer loop
      vertex -3.94046 -1.29443 0
      vertex -6 -4 0
      vertex -4.29443 -0.940456 0
    endloop
  endfacet
  facet normal -0 0 -1
    outer loop
      vertex -3.49443 -1.52169 0
      vertex -6 -4 0
      vertex -3.94046 -1.29443 0
    endloop
  endfacet
  facet normal 0 0 -1
    outer loop
      vertex -6 -4 0
      vertex -3.49443 -1.52169 0
      vertex -5 -5 0
    endloop
  endfacet
  facet normal -0 0 -1
    outer loop
      vertex -3 -1.6 0
      vertex -5 -5 0
      vertex -3.49443 -1.52169 0
    endloop
  endfacet
  facet normal 0 0 -1
    outer loop
      vertex 5.58778 4.80902 0
      vertex 5 5 0
      vertex 5.45399 4.89101 0
    endloop
  endfacet
  facet normal 0 0 -1
    outer loop
      vertex 5.45399 4.89101 0
      vertex 5 5 0
      vertex 5.30902 4.95106 0
    endloop
  endfacet
  facet normal 0 0 -1
    outer loop
      vertex 5.30902 4.95106 0
      vertex 5 5 0
      vertex 5.15643 4.98769 0
    endloop
  endfacet
  facet normal 0 0 -1
    outer loop
      vertex 5.89101 4.45399 0
      vertex 5 5 0
      vertex 5.80902 4.58778 0
    endloop
  endfacet
  facet normal 0 0 -1
    outer loop
      vertex 3 1.6 0
      vertex 5 5 0
      vertex 3.49443 1.52169 0
    endloop
  endfacet
  facet normal 0 0 -1
    outer loop
      vertex -3 1.6 0
      vertex 5 5 0
      vertex 3 1.6 0
    endloop
  endfacet
  facet normal 0 0 -1
    outer loop
      vertex -5 5 0
      vertex -3 1.6 0
      vertex -3.49443 1.52169 0
    endloop
  endfacet
  facet normal 0 0 -1
    outer loop
      vertex -3 1.6 0
      vertex -5 5 0
      vertex 5 5 0
    endloop
  endfacet
  facet normal 0 0 -1
    outer loop
      vertex -6 4 0
      vertex -3.49443 1.52169 0
      vertex -3.94046 1.29443 0
    endloop
  endfacet
  facet normal 0 0 -1
    outer loop
      vertex -6 4 0
      vertex -3.94046 1.29443 0
      vertex -4.29443 0.940456 0
    endloop
  endfacet
  facet normal 0 0 -1
    outer loop
      vertex -6 4 0
      vertex -4.29443 0.940456 0
      vertex -4.52169 0.494427 0
    endloop
  endfacet
  facet normal 0 0 -1
    outer loop
      vertex -6 4 0
      vertex -4.52169 0.494427 0
      vertex -4.6 0 0
    endloop
  endfacet
  facet normal -0 0 -1
    outer loop
      vertex -4.52169 -0.494427 0
      vertex -6 -4 0
      vertex -4.6 0 0
    endloop
  endfacet
  facet normal 0 0 -1
    outer loop
      vertex -6 -4 0
      vertex -5 -5 0
      vertex -5.15643 -4.98769 0
    endloop
  endfacet
  facet normal 0 0 -1
    outer loop
      vertex -6 4 0
      vertex -4.6 0 0
      vertex -6 -4 0
    endloop
  endfacet
  facet normal 0 0 -1
    outer loop
      vertex -6 -4 0
      vertex -5.15643 -4.98769 0
      vertex -5.30902 -4.95106 0
    endloop
  endfacet
  facet normal 0 0 -1
    outer loop
      vertex -3.49443 1.52169 0
      vertex -6 4 0
      vertex -5 5 0
    endloop
  endfacet
  facet normal 0 0 -1
    outer loop
      vertex -6 -4 0
      vertex -5.30902 -4.95106 0
      vertex -5.45399 -4.89101 0
    endloop
  endfacet
  facet normal 0 0 -1
    outer loop
      vertex -5 5 0
      vertex -6 4 0
      vertex -5.15643 4.98769 0
    endloop
  endfacet
  facet normal 0 0 -1
    outer loop
      vertex -6 -4 0
      vertex -5.45399 -4.89101 0
      vertex -5.58778 -4.80902 0
    endloop
  endfacet
  facet normal 0 0 -1
    outer loop
      vertex -5.15643 4.98769 0
      vertex -6 4 0
      vertex -5.30902 4.95106 0
    endloop
  endfacet
  facet normal 0 0 -1
    outer loop
      vertex -6 -4 0
      vertex -5.58778 -4.80902 0
      vertex -5.70711 -4.70711 0
    endloop
  endfacet
  facet normal 0 0 -1
    outer loop
      vertex -5.30902 4.95106 0
      vertex -6 4 0
      vertex -5.45399 4.89101 0
    endloop
  endfacet
  facet normal 0 0 -1
    outer loop
      vertex -6 -4 0
      vertex -5.70711 -4.70711 0
      vertex -5.80902 -4.58778 0
    endloop
  endfacet
  facet normal 0 0 -1
    outer loop
      vertex -5.45399 4.89101 0
      vertex -6 4 0
      vertex -5.58778 4.80902 0
    endloop
  endfacet
  facet normal 0 0 -1
    outer loop
      vertex -6 -4 0
      vertex -5.80902 -4.58778 0
      vertex -5.89101 -4.45399 0
    endloop
  endfacet
  facet normal 0 0 -1
    outer loop
      vertex -5.58778 4.80902 0
      vertex -6 4 0
      vertex -5.70711 4.70711 0
    endloop
  endfacet
  facet normal 0 0 -1
    outer loop
      vertex -6 -4 0
      vertex -5.89101 -4.45399 0
      vertex -5.95106 -4.30902 0
    endloop
  endfacet
  facet normal 0 0 -1
    outer loop
      vertex -5.70711 4.70711 0
      vertex -6 4 0
      vertex -5.80902 4.58778 0
    endloop
  endfacet
  facet normal 0 0 -1
    outer loop
      vertex -6 -4 0
      vertex -5.95106 -4.30902 0
      vertex -5.98769 -4.15643 0
    endloop
  endfacet
  facet normal 0 0 -1
    outer loop
      vertex -5.80902 4.58778 0
      vertex -6 4 0
      vertex -5.89101 4.45399 0
    endloop
  endfacet
  facet normal 0 0 -1
    outer loop
      vertex -5.89101 4.45399 0
      vertex -6 4 0
      vertex -5.95106 4.30902 0
    endloop
  endfacet
  facet normal 0 0 -1
    outer loop
      vertex -5.95106 4.30902 0
      vertex -6 4 0
      vertex -5.98769 4.15643 0
    endloop
  endfacet
  facet normal 0.233424 0.972375 -0
    outer loop
      vertex 5.30902 4.95106 0
      vertex 5.15643 4.98769 8
      vertex 5.30902 4.95106 8
    endloop
  endfacet
  facet normal 0.233424 0.972375 0
    outer loop
      vertex 5.15643 4.98769 8
      vertex 5.30902 4.95106 0
      vertex 5.15643 4.98769 0
    endloop
  endfacet
  facet normal 0.852631 -0.522514 0
    outer loop
      vertex 5.80902 -4.58778 8
      vertex 5.89101 -4.45399 0
      vertex 5.89101 -4.45399 8
    endloop
  endfacet
  facet normal 0.852631 -0.522514 0
    outer loop
      vertex 5.89101 -4.45399 0
      vertex 5.80902 -4.58778 8
      vertex 5.80902 -4.58778 0
    endloop
  endfacet
  facet normal 0.972375 -0.233424 0
    outer loop
      vertex 5.95106 -4.30902 8
      vertex 5.98769 -4.15643 0
      vertex 5.98769 -4.15643 8
    endloop
  endfacet
  facet normal 0.972375 -0.233424 0
    outer loop
      vertex 5.98769 -4.15643 0
      vertex 5.95106 -4.30902 8
      vertex 5.95106 -4.30902 0
    endloop
  endfacet
  facet normal 0.649421 -0.760429 0
    outer loop
      vertex 5.58778 -4.80902 0
      vertex 5.70711 -4.70711 8
      vertex 5.58778 -4.80902 8
    endloop
  endfacet
  facet normal 0.649421 -0.760429 0
    outer loop
      vertex 5.70711 -4.70711 8
      vertex 5.58778 -4.80902 0
      vertex 5.70711 -4.70711 0
    endloop
  endfacet
  facet normal 0.382691 -0.923876 0
    outer loop
      vertex 5.30902 -4.95106 0
      vertex 5.45399 -4.89101 8
      vertex 5.30902 -4.95106 8
    endloop
  endfacet
  facet normal 0.382691 -0.923876 0
    outer loop
      vertex 5.45399 -4.89101 8
      vertex 5.30902 -4.95106 0
      vertex 5.45399 -4.89101 0
    endloop
  endfacet
  facet normal -0.382691 -0.923876 0
    outer loop
      vertex -5.45399 -4.89101 0
      vertex -5.30902 -4.95106 8
      vertex -5.45399 -4.89101 8
    endloop
  endfacet
  facet normal -0.382691 -0.923876 -0
    outer loop
      vertex -5.30902 -4.95106 8
      vertex -5.45399 -4.89101 0
      vertex -5.30902 -4.95106 0
    endloop
  endfacet
  facet normal -0.522514 -0.852631 0
    outer loop
      vertex -5.58778 -4.80902 0
      vertex -5.45399 -4.89101 8
      vertex -5.58778 -4.80902 8
    endloop
  endfacet
  facet normal -0.522514 -0.852631 -0
    outer loop
      vertex -5.45399 -4.89101 8
      vertex -5.58778 -4.80902 0
      vertex -5.45399 -4.89101 0
    endloop
  endfacet
  facet normal -0.923876 -0.382691 0
    outer loop
      vertex -5.89101 -4.45399 0
      vertex -5.95106 -4.30902 8
      vertex -5.95106 -4.30902 0
    endloop
  endfacet
  facet normal -0.923876 -0.382691 0
    outer loop
      vertex -5.95106 -4.30902 8
      vertex -5.89101 -4.45399 0
      vertex -5.89101 -4.45399 8
    endloop
  endfacet
  facet normal -0.852631 -0.522514 0
    outer loop
      vertex -5.80902 -4.58778 0
      vertex -5.89101 -4.45399 8
      vertex -5.89101 -4.45399 0
    endloop
  endfacet
  facet normal -0.852631 -0.522514 0
    outer loop
      vertex -5.89101 -4.45399 8
      vertex -5.80902 -4.58778 0
      vertex -5.80902 -4.58778 8
    endloop
  endfacet
  facet normal -0.760429 -0.649421 0
    outer loop
      vertex -5.70711 -4.70711 0
      vertex -5.80902 -4.58778 8
      vertex -5.80902 -4.58778 0
    endloop
  endfacet
  facet normal -0.760429 -0.649421 0
    outer loop
      vertex -5.80902 -4.58778 8
      vertex -5.70711 -4.70711 0
      vertex -5.70711 -4.70711 8
    endloop
  endfacet
  facet normal 0.233424 -0.972375 0
    outer loop
      vertex 5.15643 -4.98769 0
      vertex 5.30902 -4.95106 8
      vertex 5.15643 -4.98769 8
    endloop
  endfacet
  facet normal 0.233424 -0.972375 0
    outer loop
      vertex 5.30902 -4.95106 8
      vertex 5.15643 -4.98769 0
      vertex 5.30902 -4.95106 0
    endloop
  endfacet
  facet normal -0.972375 -0.233424 0
    outer loop
      vertex -5.95106 -4.30902 0
      vertex -5.98769 -4.15643 8
      vertex -5.98769 -4.15643 0
    endloop
  endfacet
  facet normal -0.972375 -0.233424 0
    outer loop
      vertex -5.98769 -4.15643 8
      vertex -5.95106 -4.30902 0
      vertex -5.95106 -4.30902 8
    endloop
  endfacet
  facet normal -0.996918 -0.0784508 0
    outer loop
      vertex -5.98769 -4.15643 0
      vertex -6 -4 8
      vertex -6 -4 0
    endloop
  endfacet
  facet normal -0.996918 -0.0784508 0
    outer loop
      vertex -6 -4 8
      vertex -5.98769 -4.15643 0
      vertex -5.98769 -4.15643 8
    endloop
  endfacet
  facet normal 1 -0 0
    outer loop
      vertex -4.5 -3.5 8
      vertex -4.5 3.5 1.5
      vertex -4.5 3.5 8
    endloop
  endfacet
  facet normal 1 0 0
    outer loop
      vertex -4.5 3.5 1.5
      vertex -4.5 -3.5 8
      vertex -4.5 -3.5 1.5
    endloop
  endfacet
  facet normal -1 0 0
    outer loop
      vertex 4.5 -3.5 1.5
      vertex 4.5 3.5 8
      vertex 4.5 3.5 1.5
    endloop
  endfacet
  facet normal -1 -0 0
    outer loop
      vertex 4.5 3.5 8
      vertex 4.5 -3.5 1.5
      vertex 4.5 -3.5 8
    endloop
  endfacet
  facet normal 0 -1 0
    outer loop
      vertex -4.5 3.5 1.5
      vertex 4.5 3.5 8
      vertex -4.5 3.5 8
    endloop
  endfacet
  facet normal 0 -1 -0
    outer loop
      vertex 4.5 3.5 8
      vertex -4.5 3.5 1.5
      vertex 4.5 3.5 1.5
    endloop
  endfacet
  facet normal -0 0 1
    outer loop
      vertex -4.5 3.5 1.5
      vertex 4.5 -3.5 1.5
      vertex 4.5 3.5 1.5
    endloop
  endfacet
  facet normal 0 0 1
    outer loop
      vertex 4.5 -3.5 1.5
      vertex -4.5 3.5 1.5
      vertex -4.5 -3.5 1.5
    endloop
  endfacet
  facet normal 0 1 -0
    outer loop
      vertex 4.5 -3.5 1.5
      vertex -4.5 -3.5 8
      vertex 4.5 -3.5 8
    endloop
  endfacet
  facet normal 0 1 0
    outer loop
      vertex -4.5 -3.5 8
      vertex 4.5 -3.5 1.5
      vertex -4.5 -3.5 1.5
    endloop
  endfacet
  facet normal -0.987688 0.156435 0
    outer loop
      vertex -4.6 0 -0.4
      vertex -4.52169 0.494427 0
      vertex -4.52169 0.494427 -0.4
    endloop
  endfacet
  facet normal -0.987688 0.156435 0
    outer loop
      vertex -4.52169 0.494427 0
      vertex -4.6 0 -0.4
      vertex -4.6 0 0
    endloop
  endfacet
  facet normal -0.891009 -0.453986 0
    outer loop
      vertex -4.29443 -0.940456 -0.4
      vertex -4.52169 -0.494427 0
      vertex -4.52169 -0.494427 -0.4
    endloop
  endfacet
  facet normal -0.891009 -0.453986 0
    outer loop
      vertex -4.52169 -0.494427 0
      vertex -4.29443 -0.940456 -0.4
      vertex -4.29443 -0.940456 0
    endloop
  endfacet
  facet normal 0 0 -1
    outer loop
      vertex 4.52169 -0.494427 -0.4
      vertex 4.52169 0.494427 -0.4
      vertex 4.6 0 -0.4
    endloop
  endfacet
  facet normal 0 0 -1
    outer loop
      vertex 4.29443 -0.940456 -0.4
      vertex 4.52169 0.494427 -0.4
      vertex 4.52169 -0.494427 -0.4
    endloop
  endfacet
  facet normal 0 0 -1
    outer loop
      vertex 4.29443 -0.940456 -0.4
      vertex 4.29443 0.940456 -0.4
      vertex 4.52169 0.494427 -0.4
    endloop
  endfacet
  facet normal 0 0 -1
    outer loop
      vertex 3.94046 -1.29443 -0.4
      vertex 4.29443 0.940456 -0.4
      vertex 4.29443 -0.940456 -0.4
    endloop
  endfacet
  facet normal 0 0 -1
    outer loop
      vertex 3.94046 -1.29443 -0.4
      vertex 3.94046 1.29443 -0.4
      vertex 4.29443 0.940456 -0.4
    endloop
  endfacet
  facet normal 0 0 -1
    outer loop
      vertex 3.49443 -1.52169 -0.4
      vertex 3.94046 1.29443 -0.4
      vertex 3.94046 -1.29443 -0.4
    endloop
  endfacet
  facet normal 0 0 -1
    outer loop
      vertex 3.49443 -1.52169 -0.4
      vertex 3.49443 1.52169 -0.4
      vertex 3.94046 1.29443 -0.4
    endloop
  endfacet
  facet normal 0 0 -1
    outer loop
      vertex 3 -1.6 -0.4
      vertex 3.49443 1.52169 -0.4
      vertex 3.49443 -1.52169 -0.4
    endloop
  endfacet
  facet normal 0 0 -1
    outer loop
      vertex 3 -1.6 -0.4
      vertex 3 1.6 -0.4
      vertex 3.49443 1.52169 -0.4
    endloop
  endfacet
  facet normal 0 0 -1
    outer loop
      vertex -3 -1.6 -0.4
      vertex 3 1.6 -0.4
      vertex 3 -1.6 -0.4
    endloop
  endfacet
  facet normal 0 0 -1
    outer loop
      vertex -3 -1.6 -0.4
      vertex -3 1.6 -0.4
      vertex 3 1.6 -0.4
    endloop
  endfacet
  facet normal 0 0 -1
    outer loop
      vertex -3.49443 -1.52169 -0.4
      vertex -3 1.6 -0.4
      vertex -3 -1.6 -0.4
    endloop
  endfacet
  facet normal 0 0 -1
    outer loop
      vertex -3.49443 -1.52169 -0.4
      vertex -3.49443 1.52169 -0.4
      vertex -3 1.6 -0.4
    endloop
  endfacet
  facet normal 0 0 -1
    outer loop
      vertex -3.94046 -1.29443 -0.4
      vertex -3.49443 1.52169 -0.4
      vertex -3.49443 -1.52169 -0.4
    endloop
  endfacet
  facet normal 0 0 -1
    outer loop
      vertex -3.94046 -1.29443 -0.4
      vertex -3.94046 1.29443 -0.4
      vertex -3.49443 1.52169 -0.4
    endloop
  endfacet
  facet normal 0 0 -1
    outer loop
      vertex -4.29443 -0.940456 -0.4
      vertex -3.94046 1.29443 -0.4
      vertex -3.94046 -1.29443 -0.4
    endloop
  endfacet
  facet normal 0 0 -1
    outer loop
      vertex -4.29443 -0.940456 -0.4
      vertex -4.29443 0.940456 -0.4
      vertex -3.94046 1.29443 -0.4
    endloop
  endfacet
  facet normal 0 0 -1
    outer loop
      vertex -4.52169 -0.494427 -0.4
      vertex -4.29443 0.940456 -0.4
      vertex -4.29443 -0.940456 -0.4
    endloop
  endfacet
  facet normal 0 0 -1
    outer loop
      vertex -4.52169 -0.494427 -0.4
      vertex -4.52169 0.494427 -0.4
      vertex -4.29443 0.940456 -0.4
    endloop
  endfacet
  facet normal 0 -0 -1
    outer loop
      vertex -4.52169 0.494427 -0.4
      vertex -4.52169 -0.494427 -0.4
      vertex -4.6 0 -0.4
    endloop
  endfacet
  facet normal 0.891009 -0.453986 0
    outer loop
      vertex 4.29443 -0.940456 0
      vertex 4.52169 -0.494427 -0.4
      vertex 4.52169 -0.494427 0
    endloop
  endfacet
  facet normal 0.891009 -0.453986 0
    outer loop
      vertex 4.52169 -0.494427 -0.4
      vertex 4.29443 -0.940456 0
      vertex 4.29443 -0.940456 -0.4
    endloop
  endfacet
  facet normal 0 1 -0
    outer loop
      vertex 3 1.6 -0.4
      vertex -3 1.6 0
      vertex 3 1.6 0
    endloop
  endfacet
  facet normal 0 1 0
    outer loop
      vertex -3 1.6 0
      vertex 3 1.6 -0.4
      vertex -3 1.6 -0.4
    endloop
  endfacet
  facet normal 0 -1 0
    outer loop
      vertex -3 -1.6 -0.4
      vertex 3 -1.6 0
      vertex -3 -1.6 0
    endloop
  endfacet
  facet normal 0 -1 -0
    outer loop
      vertex 3 -1.6 0
      vertex -3 -1.6 -0.4
      vertex 3 -1.6 -0.4
    endloop
  endfacet
  facet normal 0.987688 -0.156435 0
    outer loop
      vertex 4.52169 -0.494427 0
      vertex 4.6 0 -0.4
      vertex 4.6 0 0
    endloop
  endfacet
  facet normal 0.987688 -0.156435 0
    outer loop
      vertex 4.6 0 -0.4
      vertex 4.52169 -0.494427 0
      vertex 4.52169 -0.494427 -0.4
    endloop
  endfacet
  facet normal -0.987688 -0.156435 0
    outer loop
      vertex -4.52169 -0.494427 -0.4
      vertex -4.6 0 0
      vertex -4.6 0 -0.4
    endloop
  endfacet
  facet normal -0.987688 -0.156435 0
    outer loop
      vertex -4.6 0 0
      vertex -4.52169 -0.494427 -0.4
      vertex -4.52169 -0.494427 0
    endloop
  endfacet
  facet normal -0.891009 0.453986 0
    outer loop
      vertex -4.52169 0.494427 -0.4
      vertex -4.29443 0.940456 0
      vertex -4.29443 0.940456 -0.4
    endloop
  endfacet
  facet normal -0.891009 0.453986 0
    outer loop
      vertex -4.29443 0.940456 0
      vertex -4.52169 0.494427 -0.4
      vertex -4.52169 0.494427 0
    endloop
  endfacet
  facet normal -0.156434 0.987688 0
    outer loop
      vertex -3 1.6 -0.4
      vertex -3.49443 1.52169 0
      vertex -3 1.6 0
    endloop
  endfacet
  facet normal -0.156434 0.987688 0
    outer loop
      vertex -3.49443 1.52169 0
      vertex -3 1.6 -0.4
      vertex -3.49443 1.52169 -0.4
    endloop
  endfacet
  facet normal -0.707111 0.707103 0
    outer loop
      vertex -4.29443 0.940456 -0.4
      vertex -3.94046 1.29443 0
      vertex -3.94046 1.29443 -0.4
    endloop
  endfacet
  facet normal -0.707111 0.707103 0
    outer loop
      vertex -3.94046 1.29443 0
      vertex -4.29443 0.940456 -0.4
      vertex -4.29443 0.940456 0
    endloop
  endfacet
  facet normal 0.156434 0.987688 -0
    outer loop
      vertex 3.49443 1.52169 -0.4
      vertex 3 1.6 0
      vertex 3.49443 1.52169 0
    endloop
  endfacet
  facet normal 0.156434 0.987688 0
    outer loop
      vertex 3 1.6 0
      vertex 3.49443 1.52169 -0.4
      vertex 3 1.6 -0.4
    endloop
  endfacet
  facet normal -0.453985 -0.891009 0
    outer loop
      vertex -3.94046 -1.29443 -0.4
      vertex -3.49443 -1.52169 0
      vertex -3.94046 -1.29443 0
    endloop
  endfacet
  facet normal -0.453985 -0.891009 -0
    outer loop
      vertex -3.49443 -1.52169 0
      vertex -3.94046 -1.29443 -0.4
      vertex -3.49443 -1.52169 -0.4
    endloop
  endfacet
  facet normal -0.156434 -0.987688 0
    outer loop
      vertex -3.49443 -1.52169 -0.4
      vertex -3 -1.6 0
      vertex -3.49443 -1.52169 0
    endloop
  endfacet
  facet normal -0.156434 -0.987688 -0
    outer loop
      vertex -3 -1.6 0
      vertex -3.49443 -1.52169 -0.4
      vertex -3 -1.6 -0.4
    endloop
  endfacet
  facet normal 0.707111 -0.707103 0
    outer loop
      vertex 3.94046 -1.29443 0
      vertex 4.29443 -0.940456 -0.4
      vertex 4.29443 -0.940456 0
    endloop
  endfacet
  facet normal 0.707111 -0.707103 0
    outer loop
      vertex 4.29443 -0.940456 -0.4
      vertex 3.94046 -1.29443 0
      vertex 3.94046 -1.29443 -0.4
    endloop
  endfacet
  facet normal 0.453985 -0.891009 0
    outer loop
      vertex 3.49443 -1.52169 -0.4
      vertex 3.94046 -1.29443 0
      vertex 3.49443 -1.52169 0
    endloop
  endfacet
  facet normal 0.453985 -0.891009 0
    outer loop
      vertex 3.94046 -1.29443 0
      vertex 3.49443 -1.52169 -0.4
      vertex 3.94046 -1.29443 -0.4
    endloop
  endfacet
  facet normal 0.156434 -0.987688 0
    outer loop
      vertex 3 -1.6 -0.4
      vertex 3.49443 -1.52169 0
      vertex 3 -1.6 0
    endloop
  endfacet
  facet normal 0.156434 -0.987688 0
    outer loop
      vertex 3.49443 -1.52169 0
      vertex 3 -1.6 -0.4
      vertex 3.49443 -1.52169 -0.4
    endloop
  endfacet
  facet normal 0.987688 0.156435 0
    outer loop
      vertex 4.6 0 0
      vertex 4.52169 0.494427 -0.4
      vertex 4.52169 0.494427 0
    endloop
  endfacet
  facet normal 0.987688 0.156435 0
    outer loop
      vertex 4.52169 0.494427 -0.4
      vertex 4.6 0 0
      vertex 4.6 0 -0.4
    endloop
  endfacet
  facet normal -0.453985 0.891009 0
    outer loop
      vertex -3.49443 1.52169 -0.4
      vertex -3.94046 1.29443 0
      vertex -3.49443 1.52169 0
    endloop
  endfacet
  facet normal -0.453985 0.891009 0
    outer loop
      vertex -3.94046 1.29443 0
      vertex -3.49443 1.52169 -0.4
      vertex -3.94046 1.29443 -0.4
    endloop
  endfacet
  facet normal 0.453985 0.891009 -0
    outer loop
      vertex 3.94046 1.29443 -0.4
      vertex 3.49443 1.52169 0
      vertex 3.94046 1.29443 0
    endloop
  endfacet
  facet normal 0.453985 0.891009 0
    outer loop
      vertex 3.49443 1.52169 0
      vertex 3.94046 1.29443 -0.4
      vertex 3.49443 1.52169 -0.4
    endloop
  endfacet
  facet normal 0.707111 0.707103 0
    outer loop
      vertex 4.29443 0.940456 0
      vertex 3.94046 1.29443 -0.4
      vertex 3.94046 1.29443 0
    endloop
  endfacet
  facet normal 0.707111 0.707103 0
    outer loop
      vertex 3.94046 1.29443 -0.4
      vertex 4.29443 0.940456 0
      vertex 4.29443 0.940456 -0.4
    endloop
  endfacet
  facet normal 0.891009 0.453986 0
    outer loop
      vertex 4.52169 0.494427 0
      vertex 4.29443 0.940456 -0.4
      vertex 4.29443 0.940456 0
    endloop
  endfacet
  facet normal 0.891009 0.453986 0
    outer loop
      vertex 4.29443 0.940456 -0.4
      vertex 4.52169 0.494427 0
      vertex 4.52169 0.494427 -0.4
    endloop
  endfacet
  facet normal -0.707111 -0.707103 0
    outer loop
      vertex -3.94046 -1.29443 -0.4
      vertex -4.29443 -0.940456 0
      vertex -4.29443 -0.940456 -0.4
    endloop
  endfacet
  facet normal -0.707111 -0.707103 0
    outer loop
      vertex -4.29443 -0.940456 0
      vertex -3.94046 -1.29443 -0.4
      vertex -3.94046 -1.29443 0
    endloop
  endfacet
endsolid OpenSCAD_Model
