  0
SECTION
  2
BLOCKS
  0
ENDSEC
  0
SECTION
  2
ENTITIES
  0
LINE
  8
0
 10
-5.93396
 20
-6.69615
 11
-5.86159
 21
-6.68469
  0
LINE
  8
0
 10
-5.86159
 20
-6.68469
 11
-5.79082
 21
-6.66573
  0
LINE
  8
0
 10
-5.79082
 20
-6.66573
 11
-5.72241
 21
-6.63948
  0
LINE
  8
0
 10
-5.72241
 20
-6.63948
 11
-5.65714
 21
-6.60622
  0
LINE
  8
0
 10
-5.65714
 20
-6.60622
 11
-5.59569
 21
-6.5663
  0
LINE
  8
0
 10
-5.59569
 20
-6.5663
 11
-5.53874
 21
-6.52019
  0
LINE
  8
0
 10
-5.53874
 20
-6.52019
 11
-5.48692
 21
-6.46838
  0
LINE
  8
0
 10
-5.48692
 20
-6.46838
 11
-5.44083
 21
-6.41144
  0
LINE
  8
0
 10
-5.44083
 20
-6.41144
 11
-5.40091
 21
-6.34999
  0
LINE
  8
0
 10
-5.40091
 20
-6.34999
 11
-5.36765
 21
-6.28471
  0
LINE
  8
0
 10
-5.36765
 20
-6.28471
 11
-5.3414
 21
-6.21631
  0
LINE
  8
0
 10
-5.3414
 20
-6.21631
 11
-5.32243
 21
-6.14552
  0
LINE
  8
0
 10
-5.32243
 20
-6.14552
 11
-5.31097
 21
-6.07317
  0
LINE
  8
0
 10
-5.31097
 20
-6.07317
 11
-5.30713
 21
-6
  0
LINE
  8
0
 10
-5.30713
 20
-6
 11
-5.30713
 21
-2.5
  0
LINE
  8
0
 10
-5.30713
 20
-2.5
 11
0.699997
 21
-2.5
  0
LINE
  8
0
 10
0.699997
 20
-2.5
 11
0.699997
 21
8
  0
LINE
  8
0
 10
0.699997
 20
8
 11
-0.699997
 21
8
  0
LINE
  8
0
 10
-0.699997
 20
8
 11
-0.699997
 21
0
  0
LINE
  8
0
 10
-0.699997
 20
0
 11
-6.70714
 21
0
  0
LINE
  8
0
 10
-6.70714
 20
0
 11
-6.70714
 21
-6
  0
LINE
  8
0
 10
-6.70714
 20
-6
 11
-6.70329
 21
-6.07317
  0
LINE
  8
0
 10
-6.70329
 20
-6.07317
 11
-6.69183
 21
-6.14552
  0
LINE
  8
0
 10
-6.69183
 20
-6.14552
 11
-6.67287
 21
-6.21631
  0
LINE
  8
0
 10
-6.67287
 20
-6.21631
 11
-6.64661
 21
-6.28471
  0
LINE
  8
0
 10
-6.64661
 20
-6.28471
 11
-6.61336
 21
-6.34999
  0
LINE
  8
0
 10
-6.61336
 20
-6.34999
 11
-6.57344
 21
-6.41144
  0
LINE
  8
0
 10
-6.57344
 20
-6.41144
 11
-6.52733
 21
-6.46838
  0
LINE
  8
0
 10
-6.52733
 20
-6.46838
 11
-6.47552
 21
-6.52019
  0
LINE
  8
0
 10
-6.47552
 20
-6.52019
 11
-6.41858
 21
-6.5663
  0
LINE
  8
0
 10
-6.41858
 20
-6.5663
 11
-6.35713
 21
-6.60622
  0
LINE
  8
0
 10
-6.35713
 20
-6.60622
 11
-6.29185
 21
-6.63948
  0
LINE
  8
0
 10
-6.29185
 20
-6.63948
 11
-6.22345
 21
-6.66573
  0
LINE
  8
0
 10
-6.22345
 20
-6.66573
 11
-6.15266
 21
-6.68469
  0
LINE
  8
0
 10
-6.15266
 20
-6.68469
 11
-6.08031
 21
-6.69615
  0
LINE
  8
0
 10
-6.08031
 20
-6.69615
 11
-6.00713
 21
-6.7
  0
LINE
  8
0
 10
-6.00713
 20
-6.7
 11
-5.93396
 21
-6.69615
  0
LINE
  8
0
 10
6.67317
 20
-6.69615
 11
6.74554
 21
-6.68469
  0
LINE
  8
0
 10
6.74554
 20
-6.68469
 11
6.81631
 21
-6.66573
  0
LINE
  8
0
 10
6.81631
 20
-6.66573
 11
6.88472
 21
-6.63948
  0
LINE
  8
0
 10
6.88472
 20
-6.63948
 11
6.95001
 21
-6.60622
  0
LINE
  8
0
 10
6.95001
 20
-6.60622
 11
7.01146
 21
-6.5663
  0
LINE
  8
0
 10
7.01146
 20
-6.5663
 11
7.06841
 21
-6.52019
  0
LINE
  8
0
 10
7.06841
 20
-6.52019
 11
7.12021
 21
-6.46838
  0
LINE
  8
0
 10
7.12021
 20
-6.46838
 11
7.16632
 21
-6.41144
  0
LINE
  8
0
 10
7.16632
 20
-6.41144
 11
7.20622
 21
-6.34999
  0
LINE
  8
0
 10
7.20622
 20
-6.34999
 11
7.23949
 21
-6.28471
  0
LINE
  8
0
 10
7.23949
 20
-6.28471
 11
7.26575
 21
-6.21631
  0
LINE
  8
0
 10
7.26575
 20
-6.21631
 11
7.28471
 21
-6.14552
  0
LINE
  8
0
 10
7.28471
 20
-6.14552
 11
7.29617
 21
-6.07317
  0
LINE
  8
0
 10
7.29617
 20
-6.07317
 11
7.3
 21
-6
  0
LINE
  8
0
 10
7.3
 20
-6
 11
7.3
 21
-2.5
  0
LINE
  8
0
 10
7.3
 20
-2.5
 11
15.7
 21
-2.5
  0
LINE
  8
0
 10
15.7
 20
-2.5
 11
15.7
 21
8
  0
LINE
  8
0
 10
15.7
 20
8
 11
14.3
 21
8
  0
LINE
  8
0
 10
14.3
 20
8
 11
14.3
 21
0
  0
LINE
  8
0
 10
14.3
 20
0
 11
5.90001
 21
0
  0
LINE
  8
0
 10
5.90001
 20
0
 11
5.90001
 21
-6
  0
LINE
  8
0
 10
5.90001
 20
-6
 11
5.90384
 21
-6.07317
  0
LINE
  8
0
 10
5.90384
 20
-6.07317
 11
5.9153
 21
-6.14552
  0
LINE
  8
0
 10
5.9153
 20
-6.14552
 11
5.93427
 21
-6.21631
  0
LINE
  8
0
 10
5.93427
 20
-6.21631
 11
5.96053
 21
-6.28471
  0
LINE
  8
0
 10
5.96053
 20
-6.28471
 11
5.99379
 21
-6.34999
  0
LINE
  8
0
 10
5.99379
 20
-6.34999
 11
6.03369
 21
-6.41144
  0
LINE
  8
0
 10
6.03369
 20
-6.41144
 11
6.0798
 21
-6.46838
  0
LINE
  8
0
 10
6.0798
 20
-6.46838
 11
6.13162
 21
-6.52019
  0
LINE
  8
0
 10
6.13162
 20
-6.52019
 11
6.18855
 21
-6.5663
  0
LINE
  8
0
 10
6.18855
 20
-6.5663
 11
6.25
 21
-6.60622
  0
LINE
  8
0
 10
6.25
 20
-6.60622
 11
6.31529
 21
-6.63948
  0
LINE
  8
0
 10
6.31529
 20
-6.63948
 11
6.3837
 21
-6.66573
  0
LINE
  8
0
 10
6.3837
 20
-6.66573
 11
6.45447
 21
-6.68469
  0
LINE
  8
0
 10
6.45447
 20
-6.68469
 11
6.52684
 21
-6.69615
  0
LINE
  8
0
 10
6.52684
 20
-6.69615
 11
6.60001
 21
-6.7
  0
LINE
  8
0
 10
6.60001
 20
-6.7
 11
6.67317
 21
-6.69615
  0
LINE
  8
0
 10
19.94
 20
-6.69615
 11
20.0124
 21
-6.68469
  0
LINE
  8
0
 10
20.0124
 20
-6.68469
 11
20.0832
 21
-6.66573
  0
LINE
  8
0
 10
20.0832
 20
-6.66573
 11
20.1516
 21
-6.63948
  0
LINE
  8
0
 10
20.1516
 20
-6.63948
 11
20.2169
 21
-6.60622
  0
LINE
  8
0
 10
20.2169
 20
-6.60622
 11
20.2783
 21
-6.5663
  0
LINE
  8
0
 10
20.2783
 20
-6.5663
 11
20.3352
 21
-6.52019
  0
LINE
  8
0
 10
20.3352
 20
-6.52019
 11
20.3871
 21
-6.46838
  0
LINE
  8
0
 10
20.3871
 20
-6.46838
 11
20.4332
 21
-6.41144
  0
LINE
  8
0
 10
20.4332
 20
-6.41144
 11
20.4731
 21
-6.34999
  0
LINE
  8
0
 10
20.4731
 20
-6.34999
 11
20.5063
 21
-6.28471
  0
LINE
  8
0
 10
20.5063
 20
-6.28471
 11
20.5326
 21
-6.21631
  0
LINE
  8
0
 10
20.5326
 20
-6.21631
 11
20.5516
 21
-6.14552
  0
LINE
  8
0
 10
20.5516
 20
-6.14552
 11
20.563
 21
-6.07317
  0
LINE
  8
0
 10
20.563
 20
-6.07317
 11
20.5668
 21
-6
  0
LINE
  8
0
 10
20.5668
 20
-6
 11
20.5668
 21
-2.5
  0
LINE
  8
0
 10
20.5668
 20
-2.5
 11
30.7
 21
-2.5
  0
LINE
  8
0
 10
30.7
 20
-2.5
 11
30.7
 21
8
  0
LINE
  8
0
 10
30.7
 20
8
 11
29.3
 21
8
  0
LINE
  8
0
 10
29.3
 20
8
 11
29.3
 21
0
  0
LINE
  8
0
 10
29.3
 20
0
 11
19.1669
 21
0
  0
LINE
  8
0
 10
19.1669
 20
0
 11
19.1669
 21
-6
  0
LINE
  8
0
 10
19.1669
 20
-6
 11
19.1707
 21
-6.07317
  0
LINE
  8
0
 10
19.1707
 20
-6.07317
 11
19.1821
 21
-6.14552
  0
LINE
  8
0
 10
19.1821
 20
-6.14552
 11
19.2011
 21
-6.21631
  0
LINE
  8
0
 10
19.2011
 20
-6.21631
 11
19.2274
 21
-6.28471
  0
LINE
  8
0
 10
19.2274
 20
-6.28471
 11
19.2606
 21
-6.34999
  0
LINE
  8
0
 10
19.2606
 20
-6.34999
 11
19.3005
 21
-6.41144
  0
LINE
  8
0
 10
19.3005
 20
-6.41144
 11
19.3466
 21
-6.46838
  0
LINE
  8
0
 10
19.3466
 20
-6.46838
 11
19.3985
 21
-6.52019
  0
LINE
  8
0
 10
19.3985
 20
-6.52019
 11
19.4554
 21
-6.5663
  0
LINE
  8
0
 10
19.4554
 20
-6.5663
 11
19.5168
 21
-6.60622
  0
LINE
  8
0
 10
19.5168
 20
-6.60622
 11
19.5821
 21
-6.63948
  0
LINE
  8
0
 10
19.5821
 20
-6.63948
 11
19.6505
 21
-6.66573
  0
LINE
  8
0
 10
19.6505
 20
-6.66573
 11
19.7213
 21
-6.68469
  0
LINE
  8
0
 10
19.7213
 20
-6.68469
 11
19.7937
 21
-6.69615
  0
LINE
  8
0
 10
19.7937
 20
-6.69615
 11
19.8669
 21
-6.7
  0
LINE
  8
0
 10
19.8669
 20
-6.7
 11
19.94
 21
-6.69615
  0
LINE
  8
0
 10
57.243
 20
-6.69615
 11
57.3154
 21
-6.68469
  0
LINE
  8
0
 10
57.3154
 20
-6.68469
 11
57.3861
 21
-6.66573
  0
LINE
  8
0
 10
57.3861
 20
-6.66573
 11
57.4545
 21
-6.63948
  0
LINE
  8
0
 10
57.4545
 20
-6.63948
 11
57.5198
 21
-6.60622
  0
LINE
  8
0
 10
57.5198
 20
-6.60622
 11
57.5813
 21
-6.5663
  0
LINE
  8
0
 10
57.5813
 20
-6.5663
 11
57.6382
 21
-6.52019
  0
LINE
  8
0
 10
57.6382
 20
-6.52019
 11
57.69
 21
-6.46838
  0
LINE
  8
0
 10
57.69
 20
-6.46838
 11
57.7361
 21
-6.41144
  0
LINE
  8
0
 10
57.7361
 20
-6.41144
 11
57.776
 21
-6.34999
  0
LINE
  8
0
 10
57.776
 20
-6.34999
 11
57.8093
 21
-6.28471
  0
LINE
  8
0
 10
57.8093
 20
-6.28471
 11
57.8356
 21
-6.21631
  0
LINE
  8
0
 10
57.8356
 20
-6.21631
 11
57.8545
 21
-6.14552
  0
LINE
  8
0
 10
57.8545
 20
-6.14552
 11
57.866
 21
-6.07317
  0
LINE
  8
0
 10
57.866
 20
-6.07317
 11
57.8698
 21
-6
  0
LINE
  8
0
 10
57.8698
 20
-6
 11
57.8698
 21
0
  0
LINE
  8
0
 10
57.8698
 20
0
 11
45.7
 21
0
  0
LINE
  8
0
 10
45.7
 20
0
 11
45.7
 21
8
  0
LINE
  8
0
 10
45.7
 20
8
 11
44.3
 21
8
  0
LINE
  8
0
 10
44.3
 20
8
 11
44.3
 21
-2.5
  0
LINE
  8
0
 10
44.3
 20
-2.5
 11
56.4698
 21
-2.5
  0
LINE
  8
0
 10
56.4698
 20
-2.5
 11
56.4698
 21
-6
  0
LINE
  8
0
 10
56.4698
 20
-6
 11
56.4737
 21
-6.07317
  0
LINE
  8
0
 10
56.4737
 20
-6.07317
 11
56.4851
 21
-6.14552
  0
LINE
  8
0
 10
56.4851
 20
-6.14552
 11
56.5041
 21
-6.21631
  0
LINE
  8
0
 10
56.5041
 20
-6.21631
 11
56.5303
 21
-6.28471
  0
LINE
  8
0
 10
56.5303
 20
-6.28471
 11
56.5636
 21
-6.34999
  0
LINE
  8
0
 10
56.5636
 20
-6.34999
 11
56.6035
 21
-6.41144
  0
LINE
  8
0
 10
56.6035
 20
-6.41144
 11
56.6496
 21
-6.46838
  0
LINE
  8
0
 10
56.6496
 20
-6.46838
 11
56.7014
 21
-6.52019
  0
LINE
  8
0
 10
56.7014
 20
-6.52019
 11
56.7584
 21
-6.5663
  0
LINE
  8
0
 10
56.7584
 20
-6.5663
 11
56.8198
 21
-6.60622
  0
LINE
  8
0
 10
56.8198
 20
-6.60622
 11
56.8851
 21
-6.63948
  0
LINE
  8
0
 10
56.8851
 20
-6.63948
 11
56.9535
 21
-6.66573
  0
LINE
  8
0
 10
56.9535
 20
-6.66573
 11
57.0243
 21
-6.68469
  0
LINE
  8
0
 10
57.0243
 20
-6.68469
 11
57.0966
 21
-6.69615
  0
LINE
  8
0
 10
57.0966
 20
-6.69615
 11
57.1698
 21
-6.7
  0
LINE
  8
0
 10
57.1698
 20
-6.7
 11
57.243
 21
-6.69615
  0
LINE
  8
0
 10
91.2925
 20
-6.69615
 11
91.3649
 21
-6.68469
  0
LINE
  8
0
 10
91.3649
 20
-6.68469
 11
91.4357
 21
-6.66573
  0
LINE
  8
0
 10
91.4357
 20
-6.66573
 11
91.5041
 21
-6.63948
  0
LINE
  8
0
 10
91.5041
 20
-6.63948
 11
91.5693
 21
-6.60622
  0
LINE
  8
0
 10
91.5693
 20
-6.60622
 11
91.6308
 21
-6.5663
  0
LINE
  8
0
 10
91.6308
 20
-6.5663
 11
91.6877
 21
-6.52019
  0
LINE
  8
0
 10
91.6877
 20
-6.52019
 11
91.7395
 21
-6.46838
  0
LINE
  8
0
 10
91.7395
 20
-6.46838
 11
91.7856
 21
-6.41144
  0
LINE
  8
0
 10
91.7856
 20
-6.41144
 11
91.8256
 21
-6.34999
  0
LINE
  8
0
 10
91.8256
 20
-6.34999
 11
91.8588
 21
-6.28471
  0
LINE
  8
0
 10
91.8588
 20
-6.28471
 11
91.8851
 21
-6.21631
  0
LINE
  8
0
 10
91.8851
 20
-6.21631
 11
91.904
 21
-6.14552
  0
LINE
  8
0
 10
91.904
 20
-6.14552
 11
91.9155
 21
-6.07317
  0
LINE
  8
0
 10
91.9155
 20
-6.07317
 11
91.9193
 21
-6
  0
LINE
  8
0
 10
91.9193
 20
-6
 11
91.9193
 21
0
  0
LINE
  8
0
 10
91.9193
 20
0
 11
75.7
 21
0
  0
LINE
  8
0
 10
75.7
 20
0
 11
75.7
 21
8
  0
LINE
  8
0
 10
75.7
 20
8
 11
74.3
 21
8
  0
LINE
  8
0
 10
74.3
 20
8
 11
74.3
 21
0
  0
LINE
  8
0
 10
74.3
 20
0
 11
60.7
 21
0
  0
LINE
  8
0
 10
60.7
 20
0
 11
60.7
 21
8
  0
LINE
  8
0
 10
60.7
 20
8
 11
59.3
 21
8
  0
LINE
  8
0
 10
59.3
 20
8
 11
59.3
 21
-2.5
  0
LINE
  8
0
 10
59.3
 20
-2.5
 11
73.7
 21
-2.5
  0
LINE
  8
0
 10
73.7
 20
-2.5
 11
73.7
 21
-6
  0
LINE
  8
0
 10
73.7
 20
-6
 11
73.7038
 21
-6.07317
  0
LINE
  8
0
 10
73.7038
 20
-6.07317
 11
73.7153
 21
-6.14552
  0
LINE
  8
0
 10
73.7153
 20
-6.14552
 11
73.7343
 21
-6.21631
  0
LINE
  8
0
 10
73.7343
 20
-6.21631
 11
73.7605
 21
-6.28471
  0
LINE
  8
0
 10
73.7605
 20
-6.28471
 11
73.7938
 21
-6.34999
  0
LINE
  8
0
 10
73.7938
 20
-6.34999
 11
73.8337
 21
-6.41144
  0
LINE
  8
0
 10
73.8337
 20
-6.41144
 11
73.8798
 21
-6.46838
  0
LINE
  8
0
 10
73.8798
 20
-6.46838
 11
73.9316
 21
-6.52019
  0
LINE
  8
0
 10
73.9316
 20
-6.52019
 11
73.9885
 21
-6.5663
  0
LINE
  8
0
 10
73.9885
 20
-6.5663
 11
74.05
 21
-6.60622
  0
LINE
  8
0
 10
74.05
 20
-6.60622
 11
74.1153
 21
-6.63948
  0
LINE
  8
0
 10
74.1153
 20
-6.63948
 11
74.1837
 21
-6.66573
  0
LINE
  8
0
 10
74.1837
 20
-6.66573
 11
74.2545
 21
-6.68469
  0
LINE
  8
0
 10
74.2545
 20
-6.68469
 11
74.3268
 21
-6.69615
  0
LINE
  8
0
 10
74.3268
 20
-6.69615
 11
74.4
 21
-6.7
  0
LINE
  8
0
 10
74.4
 20
-6.7
 11
74.4732
 21
-6.69615
  0
LINE
  8
0
 10
74.4732
 20
-6.69615
 11
74.5455
 21
-6.68469
  0
LINE
  8
0
 10
74.5455
 20
-6.68469
 11
74.6163
 21
-6.66573
  0
LINE
  8
0
 10
74.6163
 20
-6.66573
 11
74.6847
 21
-6.63948
  0
LINE
  8
0
 10
74.6847
 20
-6.63948
 11
74.75
 21
-6.60622
  0
LINE
  8
0
 10
74.75
 20
-6.60622
 11
74.8114
 21
-6.5663
  0
LINE
  8
0
 10
74.8114
 20
-6.5663
 11
74.8684
 21
-6.52019
  0
LINE
  8
0
 10
74.8684
 20
-6.52019
 11
74.9202
 21
-6.46838
  0
LINE
  8
0
 10
74.9202
 20
-6.46838
 11
74.9663
 21
-6.41144
  0
LINE
  8
0
 10
74.9663
 20
-6.41144
 11
75.0062
 21
-6.34999
  0
LINE
  8
0
 10
75.0062
 20
-6.34999
 11
75.0395
 21
-6.28471
  0
LINE
  8
0
 10
75.0395
 20
-6.28471
 11
75.0657
 21
-6.21631
  0
LINE
  8
0
 10
75.0657
 20
-6.21631
 11
75.0847
 21
-6.14552
  0
LINE
  8
0
 10
75.0847
 20
-6.14552
 11
75.0962
 21
-6.07317
  0
LINE
  8
0
 10
75.0962
 20
-6.07317
 11
75.1
 21
-6
  0
LINE
  8
0
 10
75.1
 20
-6
 11
75.1
 21
-2.5
  0
LINE
  8
0
 10
75.1
 20
-2.5
 11
90.5193
 21
-2.5
  0
LINE
  8
0
 10
90.5193
 20
-2.5
 11
90.5193
 21
-6
  0
LINE
  8
0
 10
90.5193
 20
-6
 11
90.5232
 21
-6.07317
  0
LINE
  8
0
 10
90.5232
 20
-6.07317
 11
90.5346
 21
-6.14552
  0
LINE
  8
0
 10
90.5346
 20
-6.14552
 11
90.5536
 21
-6.21631
  0
LINE
  8
0
 10
90.5536
 20
-6.21631
 11
90.5798
 21
-6.28471
  0
LINE
  8
0
 10
90.5798
 20
-6.28471
 11
90.6131
 21
-6.34999
  0
LINE
  8
0
 10
90.6131
 20
-6.34999
 11
90.653
 21
-6.41144
  0
LINE
  8
0
 10
90.653
 20
-6.41144
 11
90.6991
 21
-6.46838
  0
LINE
  8
0
 10
90.6991
 20
-6.46838
 11
90.7509
 21
-6.52019
  0
LINE
  8
0
 10
90.7509
 20
-6.52019
 11
90.8079
 21
-6.5663
  0
LINE
  8
0
 10
90.8079
 20
-6.5663
 11
90.8693
 21
-6.60622
  0
LINE
  8
0
 10
90.8693
 20
-6.60622
 11
90.9346
 21
-6.63948
  0
LINE
  8
0
 10
90.9346
 20
-6.63948
 11
91.003
 21
-6.66573
  0
LINE
  8
0
 10
91.003
 20
-6.66573
 11
91.0738
 21
-6.68469
  0
LINE
  8
0
 10
91.0738
 20
-6.68469
 11
91.1462
 21
-6.69615
  0
LINE
  8
0
 10
91.1462
 20
-6.69615
 11
91.2193
 21
-6.7
  0
LINE
  8
0
 10
91.2193
 20
-6.7
 11
91.2925
 21
-6.69615
  0
ENDSEC
  0
SECTION
  2
OBJECTS
  0
DICTIONARY
  0
ENDSEC
  0
EOF
